<svg width="40" height="40" viewBox="0 0 40 40" fill="none" xmlns="http://www.w3.org/2000/svg">
<g opacity="0.7">
<path d="M33.3333 19.3688V31.3337C33.3333 32.4382 32.4379 33.3337 31.3333 33.3337H8.66666C7.5621 33.3337 6.66667 32.4382 6.66667 31.3337V19.3688M12.5 16.2503C12.5 18.3214 10.8211 20.0003 8.75 20.0003C6.76518 20.0003 5.14052 18.4583 5.00864 16.5069C4.99716 16.337 5.02176 16.1669 5.06477 16.0021L7.10996 8.16215C7.3397 7.28149 8.13506 6.66699 9.04519 6.66699H30.9548C31.8649 6.66699 32.6603 7.28149 32.89 8.16215L34.9352 16.0021C34.9782 16.1669 35.0028 16.337 34.9914 16.5069C34.8595 18.4583 33.2348 20.0003 31.25 20.0003C29.1789 20.0003 27.5 18.3214 27.5 16.2503M12.5 16.2503C12.5 18.3214 14.1789 20.0003 16.25 20.0003C18.3211 20.0003 20 18.3214 20 16.2503M12.5 16.2503L13.3333 6.66699M20 16.2503C20 18.3214 21.6789 20.0003 23.75 20.0003C25.8211 20.0003 27.5 18.3214 27.5 16.2503M20 16.2503V6.66699M27.5 16.2503L26.6667 6.66699" stroke="currentColor" stroke-width="2" stroke-linecap="round" stroke-linejoin="round"/>
</g>
</svg>
