<svg width="31" height="31" viewBox="0 0 31 31" fill="none" xmlns="http://www.w3.org/2000/svg">
<g opacity="0.7">
<path d="M15.5 12.9167V3.875M17.3266 13.6732L23.72 7.27982M18.0833 15.5H27.125M17.3268 17.3266L23.7202 23.72M15.5 18.0833V27.125M13.6734 17.3268L7.27997 23.7202M12.9167 15.5H3.875M13.6732 13.6734L7.27982 7.27997M27.125 15.5C27.125 21.9203 21.9203 27.125 15.5 27.125C9.07969 27.125 3.875 21.9203 3.875 15.5C3.875 9.07969 9.07969 3.875 15.5 3.875C21.9203 3.875 27.125 9.07969 27.125 15.5ZM18.0833 15.5C18.0833 16.9267 16.9267 18.0833 15.5 18.0833C14.0733 18.0833 12.9167 16.9267 12.9167 15.5C12.9167 14.0733 14.0733 12.9167 15.5 12.9167C16.9267 12.9167 18.0833 14.0733 18.0833 15.5Z" stroke="currentColor" stroke-width="2" stroke-linecap="round" stroke-linejoin="round"/>
</g>
</svg>
